<svg width="32" height="32" viewBox="0 0 32 32" fill="none" xmlns="http://www.w3.org/2000/svg">
<g id="truck-delivery">
<path id="Vector" d="M22.6667 26.6666C24.1394 26.6666 25.3333 25.4727 25.3333 24C25.3333 22.5272 24.1394 21.3333 22.6667 21.3333C21.1939 21.3333 20 22.5272 20 24C20 25.4727 21.1939 26.6666 22.6667 26.6666Z" stroke="white" stroke-width="1.5"/>
<path id="Vector_2" d="M9.33329 26.6666C10.8061 26.6666 12 25.4727 12 24C12 22.5272 10.8061 21.3333 9.33329 21.3333C7.86053 21.3333 6.66663 22.5272 6.66663 24C6.66663 25.4727 7.86053 26.6666 9.33329 26.6666Z" stroke="white" stroke-width="1.5"/>
<path id="Vector_3" d="M6.66663 23.9632C5.20433 23.8904 4.29209 23.6728 3.64293 23.0237C2.99377 22.3745 2.77625 21.4622 2.70336 20M12 24H20M25.3333 23.9632C26.7956 23.8904 27.7078 23.6728 28.357 23.0237C29.3333 22.0473 29.3333 20.476 29.3333 17.3333V14.6666H23.0666C22.074 14.6666 21.5776 14.6666 21.176 14.5361C20.3641 14.2724 19.7276 13.6358 19.4638 12.824C19.3333 12.4223 19.3333 11.926 19.3333 10.9333C19.3333 9.44429 19.3333 8.69978 19.1376 8.09725C18.7418 6.8795 17.7872 5.92475 16.5694 5.52909C15.9669 5.33331 15.2224 5.33331 13.7333 5.33331H2.66663" stroke="white" stroke-width="1.5" stroke-linecap="round" stroke-linejoin="round"/>
<path id="Vector_4" d="M2.66663 10.6667H10.6666" stroke="white" stroke-width="1.5" stroke-linecap="round" stroke-linejoin="round"/>
<path id="Vector_5" d="M2.66663 14.6667H7.99996" stroke="white" stroke-width="1.5" stroke-linecap="round" stroke-linejoin="round"/>
<path id="Vector_6" d="M19.3334 8H21.7616C23.7022 8 24.6723 8 25.4619 8.47161C26.2515 8.94323 26.7115 9.79748 27.6315 11.506L29.3334 14.6667" stroke="white" stroke-width="1.5" stroke-linecap="round" stroke-linejoin="round"/>
</g>
</svg>
